# xmcd
#
# Track frame offsets: 
#        150
#        12475
#        30875
#        51042
#        63855
#        74882
#        89070
#        108235
#        123905
#        136695
#
# Disc length: 2010 seconds
#
# Revision: 4
# Processed by: cddbd v1.5.1PL2 Copyright (c) Steve Scherf et al.
# Submitted via: ExactAudioCopy v0.95a5
#
DISCID=8307d80a
DTITLE=Asie Payton - Worried
DYEAR=1999
DGENRE=Blues
TTITLE0=I Love You
TTITLE1=Worried Life
TTITLE2=Nobody But You
TTITLE3=Please Tell Me You Love Me
TTITLE4=Asie's Jam
TTITLE5=Can't Be Satisfied
TTITLE6=All I Need Is You
TTITLE7=Come Home With Me
TTITLE8=Skinny Legs and All
TTITLE9=I Love You [solo]
EXTD=
EXTT0=
EXTT1=
EXTT2=
EXTT3=
EXTT4=
EXTT5=
EXTT6=
EXTT7=
EXTT8=
EXTT9=
PLAYORDER=
